<?xml version="1.0" encoding="UTF-8"?>
<svg id="Layer_1" data-name="Layer 1" xmlns="http://www.w3.org/2000/svg" viewBox="0 0 282.67 407.59">
  <defs>
    <style>
      .cls-1 {
        fill: #060606;
      }
    </style>
  </defs>
  <path class="cls-1" d="M252.28,0s27.93,12.92,27.93,12.92c-6.13,24.19-9.55,48.92-14.25,73.4-1.58,8.26-16.82,51.37,3.99,47.77l12.72,27.61c-28.49,21.24-56.03,54.31-62.8,88.37-8.22,41.35,11.61,82.56,30.86,120.06-17.91,12.49-35.82,24.97-53.73,37.46-10.35-36.38-12.39-74.7-22.25-111.22-9.86-36.52-25.56-54.18-59.7-70.46-37.13-17.71-65.27-9.85-115.05-48.56l18.45-24.75c11.15,2.44,28.34,6.54,39.89,2.86,9.62-3.06,19.8-7.23,24.91-15.93,4.29-7.31,4.09-16.31,3.59-24.77-1.08-18.1-1.02-43.71-7.63-66.88l28.32-12.3c2.92,5.9,5.24,6.68,9.2,12.01,5.28,7.11,13.14,14.04,21.86,12.49,10.79-1.92,15.04-14.95,16.6-25.8,1.43-9.9,2.4-19.84,3.01-29.81l30.87-.04c.53,5.89,1.06,11.78,1.59,17.67,1.02,11.29,2.33,32.59,15.51,37.12,4.12,1.42,8.81.22,12.43-2.2,3.63-2.42,6.37-5.94,8.88-9.51,10.13-14.46,18.34-31.11,24.8-47.52"/>
</svg>